<?xml version="1.0" encoding="UTF-8"?>
<svg id="Layer_1" data-name="Layer 1" xmlns="http://www.w3.org/2000/svg" viewBox="0 0 170 170">
  <defs>
    <style>
      .cls-1 {
        fill: #3761eb;
        stroke-width: 0px;
      }
    </style>
  </defs>
  <path class="cls-1" d="M41.27,91.3s4.89,32.86,35.3,32.04c0,0,1.36,11.13,5.97,16.29,0,0,5.7,0,10.86-3.53,0,0-5.16-6.79-5.7-12.49,0,0,28.79-.68,33.13-32.04,0,0-13.71-4.07-27.7,6.52,0,0,1.49-8.28-11.81-20.64,0,0-9.64,8.69-11.27,20.23,0,0-7.88-8.96-28.79-6.38Z"/>
  <path class="cls-1" d="M46.56,67.94l.27,17.65s11.68-.68,19.55,5.02c0,0,2.99-7.06,6.52-10.59,0,0-5.57-11.13-26.34-12.08Z"/>
  <path class="cls-1" d="M89.47,79.49s5.02,5.3,6.52,11.54c0,0,4.89-5.57,20.64-5.57v-17.52s-17.24,0-27.16,11.54Z"/>
  <path class="cls-1" d="M76.43,76.63l5.02-4.35,4.89,4.21s2.44-3.67,8.01-6.52c0,0-2.72-11.27-12.76-20.5,0,0-10.05,10.18-12.9,20.23l7.74,6.92Z"/>
  <path class="cls-1" d="M52.94,63.46s.27-7.6,3.53-15.07c0,0,7.6,2.17,13.71,7.74,0,0-3.39,4.89-5.02,12.08,0,0-6.79-3.8-12.22-4.75Z"/>
  <path class="cls-1" d="M92.59,56.67s2.99,2.44,6.11,11.27c0,0,4.75-3.8,10.73-3.8,0,0-.27-9.23-2.44-15.62,0,0-10.73,2.72-14.39,8.15Z"/>
  <path class="cls-1" d="M72.9,53.14l8.55-8.69,8.69,8.55,5.3-3.39s-6.25-17.52-13.85-22.13c0,0-6.52,4.07-14.12,20.77l5.43,4.89Z"/>
</svg>